<svg width="188" height="46" viewBox="0 0 188 46" fill="none" xmlns="http://www.w3.org/2000/svg">
<path d="M41.361 15.4955C44.8797 19.7058 44.8797 25.8656 41.361 30.076L37.3432 34.8835L34.0583 40.2289C31.1815 44.9103 25.3818 46.8137 20.3303 44.7345L14.5623 42.3603L8.51433 40.8564C3.21765 39.5393 -0.366747 34.5559 0.029925 29.0606L0.482863 22.7857L0.0299256 16.5109C-0.366745 11.0155 3.21764 6.0321 8.51432 4.715L14.5623 3.21109L20.3303 0.836935C25.3818 -1.24231 31.1815 0.661172 34.0583 5.34256L37.3432 10.6879L41.361 15.4955Z" fill="#007AFF"/>
<g clip-path="url(#clip0_32278_26442)">
<path d="M110.837 12.2991C108.456 10.6599 105.145 9.82031 101.01 9.82031C97.2912 9.82031 93.8416 10.6359 90.7345 12.2111V17.7603C93.809 16.1452 96.9976 15.2176 100.496 15.2176C103.416 15.2176 108.072 16.0332 108.072 19.7274V21.0707C106.042 19.3755 103.424 18.6879 100.472 18.6879C94.2167 18.6879 88.5571 21.5984 88.5571 27.8753C88.5571 34.1521 93.6214 36.9827 99.1832 36.9827C103.342 36.9827 106.531 35.0077 108.407 32.3371L108.562 36.439H114.49V19.3036C114.49 16.3291 113.259 13.9702 110.829 12.2991H110.837ZM101.059 31.8573C98.2698 31.9133 94.9099 30.5619 94.9099 27.4355C94.9099 24.1811 98.3432 22.9897 101.238 22.9897C101.238 22.9897 104.647 22.6939 108.064 24.8448V28.7788C108.064 28.7788 104.892 31.7853 101.051 31.8653L101.059 31.8573Z" fill="white"/>
<path d="M160.085 12.2991C157.704 10.6599 154.393 9.82031 150.258 9.82031C146.54 9.82031 143.09 10.6359 139.983 12.2111V17.7603C143.058 16.1452 146.246 15.2176 149.745 15.2176C152.664 15.2176 157.321 16.0332 157.321 19.7274V21.0707C155.29 19.3755 152.672 18.6879 149.72 18.6879C143.465 18.6879 137.806 21.5984 137.806 27.8753C137.806 34.1521 142.87 36.9827 148.432 36.9827C152.591 36.9827 155.779 35.0077 157.655 32.3371L157.81 36.439H163.739V19.3036C163.739 16.3291 162.507 13.9702 160.077 12.2991H160.085ZM150.307 31.8573C147.518 31.9133 144.158 30.5619 144.158 27.4355C144.158 24.1811 147.592 22.9897 150.487 22.9897C150.487 22.9897 153.896 22.6939 157.313 24.8448V28.7788C157.313 28.7788 154.14 31.7853 150.299 31.8653L150.307 31.8573Z" fill="white"/>
<path d="M136.427 9.98005C135.514 9.86011 134.796 9.82812 133.973 9.82812C129.903 9.82812 126.201 12.6587 124.782 16.3689L124.456 10.3479H118.731V36.4548H125.092V20.7826C125.777 19.2234 126.804 17.9521 128.142 16.9845C130.181 15.5133 133.679 15.0175 136.436 15.9051V9.98005H136.427Z" fill="white"/>
<path d="M188 29.8196C186.133 30.7871 183.866 31.4268 181.859 31.4268C180.155 31.4268 179.03 31.1549 178.508 30.6112C177.978 30.0755 177.725 29.012 177.749 27.4608V15.5867H188.008V10.3493H177.749V5H171.6V10.3493H165.468V15.5867H171.6V28.996C171.6 31.7706 172.391 33.7936 173.949 34.993C175.474 36.1604 177.929 36.7601 181.256 36.7601C183.857 36.7601 186.125 36.2804 188 35.3448V29.8196Z" fill="white"/>
<path d="M78.0778 30.1551C76.7648 31.1146 74.8647 31.5384 72.5079 31.5384C69.8575 31.5384 67.8187 30.8507 66.4487 29.4994C65.0868 28.1561 64.3936 26.1571 64.3936 23.5504C64.3936 20.9437 65.0949 18.7608 66.4731 17.3535C67.8595 15.9462 69.9146 15.2265 72.5894 15.2265C74.8892 15.2265 76.7159 15.6743 78.0207 16.5699C79.4805 17.5614 80.1329 19.1126 80.3775 20.7837L86.0371 18.6408C85.4663 16.0581 84.1859 13.9951 82.1961 12.4919C79.8148 10.6928 76.5773 9.78125 72.5813 9.78125C67.9247 9.78125 64.2876 10.9727 61.7758 13.3315C59.2722 15.7063 58 19.1366 58 23.5504C58 27.9642 59.2803 31.2105 61.8003 33.5214C64.312 35.8242 67.9492 36.9916 72.622 36.9916C76.773 36.9916 80.0676 36.0641 82.4163 34.233C85.0667 32.1701 86.135 29.0196 86.347 25.8052H80.4428C80.4264 25.9891 80.1573 28.6278 78.0778 30.1391V30.1551Z" fill="white"/>
</g>
<defs>
<clipPath id="clip0_32278_26442">
<rect width="130" height="32" fill="white" transform="translate(58 5)"/>
</clipPath>
</defs>
</svg>
