<?xml version="1.0" standalone="no"?>
<!DOCTYPE svg PUBLIC "-//W3C//DTD SVG 20010904//EN"
 "http://www.w3.org/TR/2001/REC-SVG-20010904/DTD/svg10.dtd">
<svg version="1.0" xmlns="http://www.w3.org/2000/svg"
 width="512.000000pt" height="124.000000pt" viewBox="0 0 512.000000 124.000000"
 preserveAspectRatio="xMidYMid meet">

<g transform="translate(0.000000,124.000000) scale(0.100000,-0.100000)"
fill="#ffffff" stroke="none">
<path d="M610 1231 c-19 -4 -75 -25 -125 -45 -49 -20 -135 -48 -189 -62 -122
-31 -162 -51 -210 -105 -52 -56 -77 -117 -78 -187 -1 -71 -1 -347 0 -422 1
-63 17 -107 61 -167 45 -62 93 -89 216 -122 61 -16 156 -47 213 -70 215 -86
341 -44 462 156 30 48 85 124 122 169 89 106 108 149 108 244 0 94 -23 146
-108 247 -34 39 -84 109 -113 155 -80 127 -96 146 -163 178 -66 32 -140 43
-196 31z"/>
<path d="M4677 1103 c-4 -3 -7 -37 -7 -75 l0 -68 -80 0 -80 0 0 -70 0 -70 80
0 80 0 0 -192 c1 -277 11 -310 106 -358 44 -22 61 -25 159 -25 81 1 120 5 148
17 l37 17 0 74 0 74 -52 -18 c-73 -25 -168 -25 -199 0 -24 19 -24 23 -27 215
l-3 196 140 0 141 0 0 70 0 70 -140 0 -140 0 0 75 0 75 -78 0 c-43 0 -82 -3
-85 -7z"/>
<path d="M1892 970 c-77 -11 -157 -46 -209 -94 -92 -83 -128 -259 -84 -406 19
-62 31 -82 79 -130 63 -63 111 -84 226 -100 83 -12 208 1 270 29 92 40 155
125 172 230 l7 41 -80 0 -80 0 -12 -39 c-25 -86 -135 -135 -254 -113 -121 23
-170 83 -171 212 0 122 53 197 154 219 63 14 77 14 140 0 61 -13 114 -55 130
-104 6 -19 13 -35 15 -35 2 0 36 12 74 26 49 18 71 31 71 43 0 9 -15 41 -33
71 -69 117 -230 175 -415 150z"/>
<path d="M2595 955 c-27 -7 -67 -21 -87 -29 l-38 -16 0 -75 0 -75 38 16 c109
48 264 64 344 36 50 -18 88 -64 88 -107 l0 -34 -47 27 c-44 25 -57 27 -163 27
-98 0 -122 -4 -165 -23 -55 -25 -109 -72 -130 -113 -43 -81 -23 -208 42 -270
48 -47 84 -65 155 -78 107 -19 201 6 277 74 l41 37 1 -26 c1 -14 3 -30 4 -36
1 -5 3 -17 4 -25 1 -12 17 -15 82 -15 l80 0 -3 268 -3 267 -27 46 c-55 94
-165 139 -336 138 -59 0 -129 -6 -157 -14z m292 -363 l48 -18 3 -61 3 -62 -46
-26 c-107 -63 -211 -65 -275 -5 -25 23 -30 36 -30 75 0 39 5 52 31 76 54 50
164 59 266 21z"/>
<path d="M3570 963 c-44 -16 -113 -70 -138 -109 l-29 -44 -7 38 c-3 20 -6 54
-6 75 l0 37 -80 0 -80 0 0 -355 0 -355 90 0 90 0 0 223 0 222 31 38 c49 59
100 81 191 82 l78 0 0 78 0 77 -62 -1 c-35 0 -70 -3 -78 -6z"/>
<path d="M3935 955 c-27 -7 -67 -21 -87 -29 l-38 -16 0 -75 c0 -41 2 -75 4
-75 2 0 28 11 57 24 101 46 252 56 335 21 49 -20 74 -53 74 -98 l0 -38 -25 19
c-39 31 -117 45 -214 40 -182 -11 -285 -100 -285 -248 0 -131 79 -216 223
-239 109 -18 195 6 271 75 l39 36 7 -51 7 -51 78 0 79 0 0 258 0 258 -26 53
c-52 103 -162 151 -343 150 -58 0 -128 -6 -156 -14z m292 -363 l48 -18 3 -61
3 -62 -38 -24 c-41 -25 -82 -42 -125 -51 -44 -10 -125 13 -158 44 -25 23 -30
36 -30 75 0 39 5 52 31 76 54 50 164 59 266 21z"/>
</g>
</svg>
